<svg id="Capa_1" enable-background="new 0 0 512 512" height="512" viewBox="0 0 512 512" width="512" xmlns="http://www.w3.org/2000/svg"><g fill="#050402"><path d="m489.84 178.421h-32.074c-5.4-50.22-34.126-105.393-83.435-105.393h-244.55c-24.425 0-46.688 14.462-62.686 40.722-11.025 18.1-18.155 40.551-20.749 64.671h-24.185c-12.22 0-22.161 9.941-22.161 22.16v25.798c0 12.22 9.941 22.161 22.161 22.161h5.394c-4.728 10.14-7.386 21.432-7.386 33.339v63.607c-5.288 3.517-8.783 9.524-8.783 16.337v13.626c0 10.32 8.018 18.785 18.148 19.539v21.637c0 12.322 10.024 22.347 22.346 22.347h65.696c12.321 0 22.346-10.024 22.346-22.347v-21.563h51.772c3.455 3.036 7.969 4.894 12.918 4.894h94.888c4.95 0 9.464-1.858 12.918-4.894h51.772v21.563c0 12.322 10.024 22.347 22.347 22.347h65.696c12.321 0 22.346-10.024 22.346-22.347v-21.637c10.13-.755 18.147-9.219 18.147-19.539v-13.626c0-6.813-3.496-12.82-8.783-16.337v-25.09c0-4.143-3.357-7.5-7.5-7.5s-7.5 3.357-7.5 7.5v21.813h-156.525c-3.567-3.136-8.216-4.894-12.918-4.894h-94.888c-4.766 0-9.408 1.808-12.918 4.894h-156.525v-60.331c0-35.952 29.615-64.178 64.178-64.178h31.96l29.529 48.174c8.251 13.459 23.183 21.82 38.97 21.82h104.502c15.786 0 30.718-8.361 38.97-21.82l29.528-48.174h31.96c34.496 0 64.178 28.152 64.178 64.178v3.518c0 4.143 3.357 7.5 7.5 7.5s7.5-3.357 7.5-7.5c-.194-1.953 1.401-18.01-7.386-36.856h13.282c12.219 0 22.16-9.941 22.16-22.161v-25.798c0-12.219-9.941-22.16-22.16-22.16zm-467.679 55.119c-3.948 0-7.161-3.213-7.161-7.161v-25.798c0-3.948 3.213-7.16 7.161-7.16h23.156c-.052 1.826-.084 3.657-.084 5.494v25.241c-3.086 2.895-5.939 6.032-8.531 9.384zm102.761 183.085c0 4.051-3.295 7.347-7.346 7.347h-65.696c-4.051 0-7.346-3.296-7.346-7.347v-21.563h80.388zm334.657 0c0 4.051-3.295 7.347-7.346 7.347h-65.696c-4.051 0-7.347-3.296-7.347-7.347v-21.563h80.389zm13.534-59.415c.263 0 .519.036.771.081.104.019.208.042.312.068 1.996.504 3.53 2.337 3.53 4.464v13.626c0 2.501-2.112 4.613-4.613 4.613-16.46 0-137.77 0-153.999 0v-22.852zm-173.613-4.894c2.507 0 4.613 2.146 4.613 4.613v23.413c0 2.356-2.005 4.613-4.613 4.613h-94.888c-2.618 0-4.613-2.266-4.613-4.613v-23.412c0-2.463 2.098-4.613 4.613-4.613h94.888zm-114.501 4.894v22.853c-15.8 0-139.486 0-154 0-2.501 0-4.613-2.112-4.613-4.613v-13.626c0-2.126 1.531-3.958 3.525-4.463.107-.027.213-.051.318-.07.252-.045.507-.08.77-.08h154zm-99.529-153.28v-5.015c0-24.493 5.678-47.306 15.988-64.232 8.414-13.812 18.473-21.418 28.323-21.418h108.719c4.143 0 7.5-3.357 7.5-7.5s-3.357-7.5-7.5-7.5h-108.719c-15.284 0-29.892 10.162-41.134 28.614-11.722 19.246-18.178 44.829-18.178 72.036v9.262c-3.544 1.393-6.962 3.033-10.236 4.902v-14.164c0-26.381 5.935-54.809 19.673-77.361 13.171-21.619 30.884-33.525 49.875-33.525h244.55c18.992 0 36.705 11.906 49.876 33.524 13.687 22.469 19.673 50.734 19.673 77.362v14.165c-3.274-1.869-6.693-3.509-10.236-4.902v-9.263c0-27.208-6.456-52.791-18.179-72.036-11.24-18.452-25.849-28.614-41.133-28.614h-100.832c-4.143 0-7.5 3.357-7.5 7.5s3.357 7.5 7.5 7.5h100.832c9.851 0 19.909 7.606 28.322 21.417 10.311 16.928 15.989 39.739 15.989 64.233v5.015c-4.001-.715-8.733-1.183-13.272-1.219-.036-34.752-28.317-63.013-63.077-63.013-34.757 0-63.036 28.256-63.077 63.003-22.212 0-156.974 0-179.87 0-4.69 0-9.754.491-13.877 1.229zm245.018 54.105c-5.543 9.043-15.575 14.66-26.181 14.66h-104.501c-10.606 0-20.638-5.617-26.181-14.66l-24.724-40.334h206.311zm-11.368-55.334c.042-12.744 10.42-23.1 23.174-23.1s23.132 10.355 23.174 23.1zm61.35 0c-.042-21.015-17.151-38.1-38.176-38.1s-38.134 17.085-38.176 38.1h-9.903c.042-26.476 21.594-48.003 48.079-48.003s48.037 21.527 48.079 48.003zm116.53 23.678c0 3.948-3.212 7.161-7.16 7.161h-22.43c-2.592-3.351-5.445-6.488-8.531-9.383v-25.242c0-1.819-.026-3.654-.079-5.494h31.039c3.948 0 7.16 3.212 7.16 7.16v25.798z"/><path d="m192.751 300.85c-4.143 0-7.5 3.357-7.5 7.5s3.357 7.5 7.5 7.5h118.61c4.143 0 7.5-3.357 7.5-7.5s-3.357-7.5-7.5-7.5z"/><path d="m411.856 245.381c-20.256 0-36.735 16.479-36.735 36.734s16.479 36.735 36.735 36.735 36.735-16.479 36.735-36.735-16.479-36.734-36.735-36.734zm0 58.47c-11.985 0-21.735-9.75-21.735-21.735 0-11.984 9.75-21.734 21.735-21.734s21.735 9.75 21.735 21.734c.001 11.985-9.749 21.735-21.735 21.735z"/><path d="m55.521 282.115c0 20.256 16.479 36.735 36.735 36.735s36.734-16.479 36.734-36.735-16.479-36.734-36.734-36.734-36.735 16.478-36.735 36.734zm58.47 0c0 11.985-9.75 21.735-21.734 21.735-11.985 0-21.735-9.75-21.735-21.735 0-11.984 9.75-21.734 21.735-21.734 11.984 0 21.734 9.75 21.734 21.734z"/></g></svg>